<svg width="200" height="200" viewBox="0 0 200 200" fill="none" xmlns="http://www.w3.org/2000/svg">
<g clip-path="url(#clip0_50_6)">
<path d="M186.552 50.0715C177.825 34.907 165.093 22.3176 149.928 13.4478C134.764 4.72103 117.454 0 100 0C82.5465 0 65.236 4.57797 50.0715 13.4478C34.907 22.1745 22.3176 34.907 13.4478 50.0715C4.72106 65.236 0 82.5465 0 100C0 117.454 4.578 134.764 13.4478 149.928C22.1746 165.093 34.907 177.682 50.0715 186.552C65.236 195.279 82.5465 200 100 200C117.454 200 134.764 195.422 149.928 186.552C165.093 177.825 177.682 165.093 186.552 149.928C195.279 134.764 200 117.454 200 100C200 82.5465 195.422 65.236 186.552 50.0715ZM10.1574 100.143C10.1574 84.4063 14.3061 68.8126 22.1745 55.2217C30.0429 41.4878 41.4878 30.186 55.0787 22.3176C67.9542 14.8784 82.4034 10.7296 97.2818 10.3004L85.8369 91.9885L20.887 142.775C13.877 129.757 10.1574 115.165 10.1574 100.286V100.143ZM145.064 177.969C131.33 185.837 115.88 189.986 100.143 189.986C84.4063 189.986 68.8126 185.837 55.2217 177.969C42.3462 170.529 31.6166 160.086 23.7482 147.496L100.143 116.595L176.538 147.496C168.67 160.086 157.94 170.529 145.064 177.969ZM179.399 142.632L114.449 91.8455L103.004 10.1574C117.883 10.5866 132.332 14.7353 145.207 22.1745C158.941 30.0429 170.243 41.4878 178.112 55.0787C185.98 68.8126 190.129 84.2632 190.129 100C190.129 115.737 186.409 129.471 179.399 142.489V142.632Z" fill="black"/>
</g>
<defs>
<clipPath id="clip0_50_6">
<rect width="200" height="200" fill="white"/>
</clipPath>
</defs>
</svg>
